<svg xmlns="http://www.w3.org/2000/svg" version="1.1" xmlns:xlink="http://www.w3.org/1999/xlink" xmlns:svgjs="http://svgjs.dev/svgjs" width="1500" height="314" viewBox="0 0 1500 314"><g transform="matrix(1,0,0,1,-0.9090909090909918,0.871626532709854)"><svg viewBox="0 0 396 83" data-background-color="#0a1627" preserveAspectRatio="xMidYMid meet" height="314" width="1500" xmlns="http://www.w3.org/2000/svg" xmlns:xlink="http://www.w3.org/1999/xlink"><g id="tight-bounds" transform="matrix(1,0,0,1,0.2400000000000091,-0.23039809622585494)"><svg viewBox="0 0 395.52 83.4607961924517" height="83.4607961924517" width="395.52"><g><svg viewBox="0 0 525.3018171850167 110.84675339705502" height="83.4607961924517" width="395.52"><g transform="matrix(1,0,0,1,0,15.319630896409201)"><svg viewBox="0 0 395.52 80.20749160423662" height="80.20749160423662" width="395.52"><g id="textblocktransform"><svg viewBox="0 0 395.52 80.20749160423662" height="80.20749160423662" width="395.52" id="textblock"><g><svg viewBox="0 0 395.52 80.20749160423662" height="80.20749160423662" width="395.52"><g transform="matrix(1,0,0,1,0,0)"><svg width="395.52" viewBox="1.5 -32.4 193.53 39.25" height="80.20749160423662" data-palette-color="#d0087d"><path d="M21.3-21.75L21.8-22.2Q24.55-24.55 27.85-24.55 31.15-24.55 32.48-23.03 33.8-21.5 33.8-18.45L33.8-18.45 33.8 0 25.3 0 25.3-15.6Q25.3-16.85 24.2-16.85L24.2-16.85Q22.8-16.85 21.85-16.15L21.85-16.15 21.85 0 13.35 0 13.35-15.6Q13.35-16.85 12.25-16.85L12.25-16.85Q10.85-16.85 9.9-16.15L9.9-16.15 9.9 0 1.5 0 1.5-23.95 9.15-23.95 9.65-22.2 9.85-22.2Q12.6-24.55 16.38-24.55 20.15-24.55 21.3-21.75L21.3-21.75ZM54.85-17.7L54.85-17.7 54.6-7.35Q54.6-6.4 55.07-6.08 55.55-5.75 56.7-5.75L56.7-5.75 55.95 0.3Q53.05 0.5 52.75 0.5L52.75 0.5Q49.05 0.5 48.05-2.05L48.05-2.05 47.8-2.05Q45.95 0.5 42.1 0.5L42.1 0.5Q39.15 0.5 37.57-1.4 36-3.3 36-6.6L36-6.6Q36-10.75 38.57-12.35 41.15-13.95 46.7-14.45L46.7-14.45 46.7-15.65Q46.7-17.05 45.3-17.05L45.3-17.05Q42.9-17.05 37.8-15.6L37.8-15.6 36.55-22.9Q42.95-24.55 47.2-24.55 51.45-24.55 53.15-22.9 54.85-21.25 54.85-17.7ZM45.2-5.35L45.2-5.35Q47.05-5.35 47.05-7.3L47.05-7.3 47.05-9.75Q45.2-9.5 44.42-8.97 43.65-8.45 43.65-7.2L43.65-7.2Q43.65-5.35 45.2-5.35ZM57.3-16.88Q57.3-20.5 59.52-22.53 61.75-24.55 65.65-24.55 69.55-24.55 73.55-23.55L73.55-23.55 72.7-16.6Q67.6-17.75 65.85-17.75L65.85-17.75Q64.8-17.75 64.8-16.9L64.8-16.9Q64.8-16.35 65.95-15.9L65.95-15.9Q69.95-14.45 71.97-12.6 74-10.75 74-7.05 74-3.35 72.1-1.43 70.2 0.5 66.27 0.5 62.35 0.5 58.45-0.5L58.45-0.5 59-7.25Q64-5.9 65.47-5.9 66.95-5.9 66.95-6.6 66.95-7.3 65.85-7.7L65.85-7.7Q61.4-9.4 59.35-11.33 57.3-13.25 57.3-16.88ZM74.39-16.88Q74.39-20.5 76.62-22.53 78.84-24.55 82.74-24.55 86.64-24.55 90.64-23.55L90.64-23.55 89.79-16.6Q84.69-17.75 82.94-17.75L82.94-17.75Q81.89-17.75 81.89-16.9L81.89-16.9Q81.89-16.35 83.04-15.9L83.04-15.9Q87.04-14.45 89.07-12.6 91.09-10.75 91.09-7.05 91.09-3.35 89.19-1.43 87.29 0.5 83.37 0.5 79.44 0.5 75.54-0.5L75.54-0.5 76.09-7.25Q81.09-5.9 82.57-5.9 84.04-5.9 84.04-6.6 84.04-7.3 82.94-7.7L82.94-7.7Q78.49-9.4 76.44-11.33 74.39-13.25 74.39-16.88ZM101.39-0.55L101.19-0.55 101.19 6.85 92.79 6.85 92.79-23.95 99.69-23.95 100.19-22.45 100.44-22.45Q101.84-24.5 105.94-24.5 110.04-24.5 111.72-21.65 113.39-18.8 113.39-12.3 113.39-5.8 111.62-2.63 109.84 0.55 105.09 0.55L105.09 0.55Q102.89 0.55 101.39-0.55L101.39-0.55ZM104.72-7.53Q104.89-8.4 104.94-9.25 104.99-10.1 104.99-12.48 104.99-14.85 104.64-16.13 104.29-17.4 103.22-17.4 102.14-17.4 101.09-16.8L101.09-16.8 101.09-6.45Q102.04-6 102.92-6 103.79-6 104.17-6.33 104.54-6.65 104.72-7.53ZM124.39-13.45L124.39-13.45 124.39 0 116.09 0 116.09-23.95 123.39-23.95 123.89-22.5 124.09-22.5Q125.24-23.8 126.41-24.18 127.59-24.55 130.24-24.55L130.24-24.55 129.89-16.55 127.59-16.55Q125.64-16.55 125.01-15.95 124.39-15.35 124.39-13.45ZM131.34-12.08Q131.34-18.65 133.86-21.6 136.39-24.55 141.76-24.55 147.14-24.55 149.59-21.65 152.04-18.75 152.04-12.13 152.04-5.5 149.64-2.5 147.24 0.5 141.79 0.5 136.34 0.5 133.84-2.5 131.34-5.5 131.34-12.08ZM143.36-16.8Q143.04-17.8 141.74-17.8 140.44-17.8 140.09-16.8 139.74-15.8 139.74-12.6L139.74-12.6 139.74-11.4Q139.74-7.85 140.09-6.8 140.44-5.75 141.71-5.75 142.99-5.75 143.34-6.8 143.69-7.85 143.69-11.1L143.69-11.1 143.69-12.55Q143.69-15.8 143.36-16.8ZM162.53-32.4L162.53-32.4Q165.63-32.4 169.03-32.1L169.03-32.1 168.33-24.8Q166.08-25.05 165.06-25.05 164.03-25.05 164.03-24.15L164.03-24.15 164.03-23.25 168.13-23.25 167.73-17.05 164.13-17.05 164.13 0 155.78 0 155.78-17.05 153.58-17.05 153.58-23.25 155.78-23.25 155.78-25.75Q155.78-32.4 162.53-32.4ZM177.73-23.7L177.73 0 169.48 0 169.48-23.7 177.73-23.7ZM170.13-25.6Q169.08-26.5 169.08-28.5 169.08-30.5 170.13-31.45 171.18-32.4 173.58-32.4 175.98-32.4 177.03-31.45 178.08-30.5 178.08-28.53 178.08-26.55 177.03-25.63 175.98-24.7 173.58-24.7 171.18-24.7 170.13-25.6ZM194.63-6.6L194.38 0.05Q190.68 0.5 187.95 0.5 185.23 0.5 183.7-0.93 182.18-2.35 182.18-5.85L182.18-5.85 182.18-17.45 179.78-17.45 179.78-23.65 182.58-23.65 183.03-28.25 190.58-28.25 190.58-23.65 195.03-23.65 194.68-17.45 190.53-17.45 190.53-7.5Q190.53-6.45 191.53-6.45L191.53-6.45Q191.63-6.45 194.63-6.6L194.63-6.6Z" opacity="1" transform="matrix(1,0,0,1,0,0)" fill="#d0087d" class="wordmark-text-0" data-fill-palette-color="primary" id="text-0"></path></svg></g></svg></g></svg></g></svg></g><g transform="matrix(1,0,0,1,414.45506378796176,0)"><svg viewBox="0 0 110.84675339705502 110.84675339705502" height="110.84675339705502" width="110.84675339705502"><g data-palette-color="#7e1d62"><rect width="30.29811259519504" height="110.84675339705502" fill="#7e1d62" stroke="transparent" data-fill-palette-color="accent" x="0" fill-opacity="1"></rect><rect width="30.29811259519504" height="110.84675339705502" fill="#7e1d62" stroke="transparent" data-fill-palette-color="accent" x="36.94891779901834" fill-opacity="0.75"></rect><rect width="30.29811259519504" height="110.84675339705502" fill="#7e1d62" stroke="transparent" data-fill-palette-color="accent" x="73.89783559803668" fill-opacity="0.5"></rect></g></svg></g></svg></g><defs></defs></svg><rect width="395.52" height="83.4607961924517" fill="none" stroke="none" visibility="hidden"></rect></g></svg></g></svg>